<?xml version="1.0" encoding="utf-8"?>
<!-- Generator: Adobe Illustrator 24.3.0, SVG Export Plug-In . SVG Version: 6.00 Build 0)  -->
<svg version="1.1" id="Layer_1" xmlns="http://www.w3.org/2000/svg" xmlns:xlink="http://www.w3.org/1999/xlink" x="0px" y="0px"
	 viewBox="0 0 512 512" style="enable-background:new 0 0 512 512;" xml:space="preserve">
<style type="text/css">
	.st0{fill:#D7262C;}
</style>
<g id="XMLID_1_">
	<g id="XMLID_2_">
		<g id="XMLID_83_">
			<path id="XMLID_84_" class="st0" d="M438.38,311.75c-1.38,1.38,0.83,3.04,0,4.29c-6.5-0.83-7.75,0.55-8.99,8.44
				c-5.81,0-11.62,0-18.13,0c0.97-3.04,1.66-5.54,2.77-9.13c-4.43-1.52-8.86-3.6-13.7-4.7c-3.18-0.83-4.43-2.63-5.26-5.12
				c-0.83-2.63-0.42-4.98,1.8-7.2c3.32-3.18,6.37-6.64,9.27-10.24c1.38-1.8,2.21-4.15,3.04-6.37c0.28-0.55,0-2.35-0.42-2.63
				c-1.52,2.21-5.26,7.89-6.37,8.03c-1.52,0.28-0.42-6.37-2.77-5.4c-2.49,1.11-0.69,15.08-15.91,12.32c4.29-6.5,2.21-12.32-4.98-7.2
				c0.69-5.4,0.14-10.52-0.97-15.22c-0.55-2.35-2.77-4.29-4.15-6.5c-1.38-2.49-4.01-4.7-4.29-7.33c-0.83-5.95-0.42-14.39-0.83-20.34
				c-0.14-1.25-2.08-0.83-3.04-1.38c-6.5-4.01-6.5-8.86-4.01-16.19c0.83-2.63,3.04-5.4,5.54-7.61c-0.28,4.7,0.69,6.92,1.8,8.86
				c0.28,0.55,1.52,1.52,1.94,1.38c0.14-2.21,0.14-4.43,0.42-6.64c0.69-6.78,3.32-10.1,10.1-10.24c3.74-0.14,8.16,0.55,11.9,0.14
				c2.35-0.28,6.09-0.42,6.92-1.94c0.28-0.42,0.14-1.52-0.28-1.8c-0.97-0.69-3.18-0.28-4.7-0.28c-1.52,0-4.15,0.14-5.81,0.14
				c0.83-7.75,9.55-15.22,17.85-15.78c7.61-0.55,17.44,1.8,23.52,5.95c11.35,7.06,16.47,12.87,28.64,22.42
				c6.64,4.84,12.45,8.72,19.23,13.28c0.97,0.69,3.18,1.66,5.12,2.49c-1.38-4.84-2.77-8.72-3.74-12.59
				c-0.55-2.21-0.83-4.57-0.83-6.78c-0.14-6.23,3.04-9.13,8.72-7.2c7.89,2.77,16.05,7.06,24.22,10.52
				c-6.23,5.67-13.7,6.64-17.44-0.28c-0.69-0.97-1.38-1.94-2.21-2.63c-3.6-2.91-6.23-1.8-7.06-0.28c-0.55,0.97-0.14,2.91,0.28,4.15
				c2.08,4.7,4.43,9.27,7.06,13.7c3.46,5.95,7.75,11.49,10.93,17.57c6.09,11.9,5.26,23.8-1.66,35.42c-1.38,2.35-1.52,6.64-0.42,9.27
				c1.11,2.63,0.69,4.01,2.49,6.64c2.63,3.87-1.25,5.26-3.74,12.73c-1.11,3.18-1.11,7.61-1.38,11.07c-0.28,2.35-0.97,3.32-3.32,3.32
				c-3.87-0.14-7.75,0-12.87,0c1.66-2.91,1.25-5.54,2.91-6.92c5.4-3.46,6.09-7.75,5.26-13.56c-1.38-5.54-2.49-9.41-4.7-10.38
				c-1.8-0.83-5.12-0.83-10.1,0c-0.69,0.69-0.14,2.21-0.14,2.35c2.91,4.29,0,5.54-3.04,8.03c-6.09,4.7-10.38,8.3-12.87,15.91
				c-0.28,0.97-0.55,4.43-1.38,4.57c-4.43,0.28-11.76,0.14-16.19,0.14c-0.28-0.42,0.97-2.08,0.97-2.63
				c-0.14-2.49,1.94-3.32,3.74-4.84c5.95-4.84,8.16-11.21,10.24-17.99c1.11-3.46-4.43-4.7-6.5-4.43c-2.35,0.28-4.98,0.14-7.33,5.4
				c-0.69,1.66-1.11,3.6-1.38,5.4c-0.28,1.66,0.28,4.98-0.14,5.81C441.98,311.89,438.8,311.89,438.38,311.75z M444.89,226.65
				c-0.55-0.14-2.21-0.69-2.49-0.55c10.79,14.94,11.07,27.81-2.21,40.13c1.94,0,4.15-0.28,5.12-0.42
				c9.82-0.97,15.22-3.18,28.23-2.63c13.01-0.14,17.3,3.32,21.73,15.22c0.42-0.14,0.83-0.28,1.11-0.55
				c9.55-11.49,5.67-31.41-7.89-37.36c-14.39-6.23-26.85-14.94-38.47-25.18c-1.25-1.11-3.74-3.18-4.98-4.15
				c-0.42,0.28,0.14,1.94,0.14,1.94s4.15,9.69,6.5,15.36C448.62,227.75,446.55,227.2,444.89,226.65z M417.76,213.64
				c0.14,5.81-2.21,9.41-6.23,12.32c-2.35,1.8-3.32,4.84-0.83,7.61c2.35,2.63,5.12,2.21,7.75,0.42
				C424.68,229.69,424.68,220.56,417.76,213.64z M424.82,291.82c-4.15,3.46-8.3,7.06-12.32,10.52c2.35,0.97,4.84,0.28,6.5,1.11
				c1.66,0.83,2.35,3.32,3.46,5.12C426.48,305.11,427.73,297.08,424.82,291.82z M380.4,264.42c0.83,0.55,3.32-0.28,4.15,0.42
				c1.11,0.83,2.49,3.6,4.84,3.6s3.32-2.35,4.57-3.18c0.83-0.55,3.74-0.14,4.57-0.55C395.76,259.86,384.42,259.44,380.4,264.42z
				 M408.63,241.59c-1.25,1.38-2.91,3.18-3.87,4.7c-0.42,0.69-0.83,2.08-0.42,2.63c0.55,0.55,2.35,0.42,3.04,0
				C409.18,247.96,409.88,242.84,408.63,241.59z"/>
		</g>
	</g>
	<g id="XMLID_4_">
		<g id="XMLID_5_">
			<g id="XMLID_174_">
				<path id="XMLID_192_" d="M16.74,302.48L9.41,324.9H0l25.74-71.26h7.47l26.15,71.26h-9.82l-7.61-22.42H16.74z M38.88,293.76
					l-9.13-25.6c-1.11,4.29-9.13,25.46-9.13,25.46L38.88,293.76z"/>
				<path id="XMLID_190_" d="M64.62,287.26c0-5.26-0.14-14.25-0.14-14.25l8.44-0.14l0.14,4.43l0.97-0.14
					c2.63-4.84,6.23-5.67,12.32-5.67c6.37,0,10.66,2.21,12.73,8.16l1.11-0.14c1.52-2.91,2.49-3.87,4.57-5.54
					c3.04-1.8,6.37-2.49,10.93-2.49c6.23,0,15.5,5.4,15.5,23.11v30.17h-8.3v-28.92c0-9.82-3.32-15.78-10.24-15.78
					c-4.84,0-8.44,1.66-9.96,6.23c-0.42,1.25-0.83,5.12-0.83,6.92v31.55h-8.3v-30.58c0-8.16-3.32-14.11-9.82-14.11
					c-5.4,0-8.3,2.21-9.69,6.92c-0.55,1.38-0.97,5.4-0.97,6.92v30.86h-9.13L64.62,287.26z"/>
				<path id="XMLID_187_" d="M146.54,300.96c0.28,12.59,7.2,16.88,16.61,16.88c6.78,0,10.93-4.98,13.01-8.44l6.37,5.95
					c-4.43,6.37-11.35,10.52-19.51,10.52c-15.91,0-25.32-10.38-25.32-25.74s7.06-27.54,24.22-27.54c16.88,0,22.83,14.67,22.83,24.08
					c0,1.94-0.28,3.32-0.28,4.29H146.54z M175.05,294.31c0.14-5.95-3.46-14.53-13.98-14.53c-9.55,0-13.7,8.16-14.39,14.53H175.05z"
					/>
				<path id="XMLID_185_" d="M190.13,289.61c0-6.09,0-16.61,0-16.61h8.72l-0.14,6.37l0.55,0.28c2.49-5.26,8.16-7.33,11.76-7.2
					c0.97,0,4.84-0.28,5.67,0v8.72c-0.83-0.28-4.98,0-6.09,0c-6.09,0-10.24,4.98-11.49,11.9c-0.14,1.25-0.42,2.77-0.42,4.29v27.26
					h-8.44v-35.01H190.13z"/>
				<path id="XMLID_182_" d="M223.07,325.59v-51.2h8.58v51.2H223.07z M223.07,269.82v-9.96h8.58v9.96H223.07z"/>
				<path id="XMLID_180_" d="M255.45,259.03v14.67h13.56v7.06h-13.56v27.54c0,6.37,1.66,9.96,6.37,9.96c2.21,0,5.67-1.11,7.33-2.35
					v8.03c-1.66,0.69-4.15,2.08-9.55,2.08c-4.01-0.14-7.2-1.38-9.27-3.87c-2.49-2.77-3.32-7.33-3.32-13.28v-27.95h-8.99v-7.06h8.99
					v-14.67h8.44V259.03z"/>
				<path id="XMLID_177_" d="M306.09,324.9l-0.69-6.5h-0.28c-2.91,4.01-8.58,7.61-15.91,7.61c-10.52,0-15.91-7.33-15.91-14.67
					c0-13.98,11.21-19.1,31.41-18.96v-1.11c0-4.29-1.25-11.76-11.9-11.76c-4.84,0-8.58,2.63-12.32,6.09l-5.67-5.26
					c6.92-6.09,13.28-8.44,19.79-8.44c15.91,0,19.37,11.49,19.37,21.73v19.1c0,4.43,0.28,8.72,0.83,12.32h-8.72V324.9z
					 M304.71,299.85c-10.38-0.28-22.14,0.42-22.14,10.38c0,6.09,4.15,7.75,8.99,7.75c6.78,0,11.07-3.18,12.59-7.47
					c0.28-0.97,0.55-2.08,0.55-2.91V299.85z"/>
				<path id="XMLID_175_" d="M325.6,309.4c1.38,2.91,3.74,8.58,12.18,8.58c6.23,0,9.96-3.18,9.96-6.5c0-4.43-2.63-9.13-9.41-9.41
					c-12.32-0.55-17.71-8.44-17.71-14.53c0-8.3,7.06-15.64,17.16-15.64c4.7,0,12.59,1.94,17.99,9.96l-7.61,5.4
					c-2.49-5.54-5.54-7.33-9.96-7.33c-5.12,0-8.58,2.91-8.58,6.64c0,4.29,4.15,7.61,13.28,8.72c8.72,1.11,13.56,7.61,13.56,15.22
					c0,8.99-7.61,16.33-18.82,15.5c-13.7-0.97-16.88-7.89-18.82-10.52L325.6,309.4z"/>
			</g>
		</g>
		<g id="XMLID_32_">
			<path id="XMLID_33_" d="M362.97,316.73c0.42-0.14,0.97-0.14,1.66-0.14c0.83,0,1.52,0.14,1.94,0.42c0.28,0.28,0.55,0.69,0.55,1.11
				c0,0.69-0.55,1.25-1.25,1.38l0,0c0.55,0.14,0.83,0.55,0.97,1.11c0.28,0.83,0.42,1.38,0.55,1.52h-0.83
				c-0.14-0.14-0.28-0.69-0.42-1.38c-0.14-0.83-0.55-1.11-1.25-1.11h-0.83v2.49h-0.83v-5.4H362.97z M363.8,319.22h0.83
				c0.83,0,1.52-0.42,1.52-1.11s-0.55-1.11-1.52-1.11c-0.42,0-0.69,0-0.83,0V319.22z"/>
		</g>
		<path id="XMLID_36_" d="M365.04,325.73c-3.46,0-6.37-2.77-6.37-6.37c0-3.46,2.77-6.37,6.37-6.37c3.46,0,6.37,2.77,6.37,6.37
			C371.41,322.96,368.5,325.73,365.04,325.73z M365.04,314.93c-2.49,0-4.57,2.08-4.57,4.57s2.08,4.57,4.57,4.57
			c2.49,0,4.57-2.08,4.57-4.57C369.61,317.01,367.53,314.93,365.04,314.93z"/>
	</g>
</g>
</svg>
