<svg enable-background="new 0 0 704.058 300" height="300px" id="Layer_1" version="1.1" viewBox="0 0 704.058 300" width="704.058px" x="0px" xml:space="preserve" xmlns="http://www.w3.org/2000/svg" xmlns:xlink="http://www.w3.org/1999/xlink" y="0px">
<g>
<g>
<g>
<path clip-rule="evenodd" d="M253.58,78.485c-25.043,0-50.086,0-75.129,0
				c0-25.143,0-50.285,0-75.428c25.143,0,50.286,0,75.429,0c0,12.571,0,25.143,0,37.715c21.095-5.344,41.579-11.974,68.843-11.974
				c8.246,0,18.798,0.624,21.252,5.388c0.677,1.314,0.872,5.758,1.796,7.483c5.587,10.442,35.584,4.796,46.395,2.694
				c30.561-5.941,60.617-15.988,96.68-12.871c17.188,1.484,31.951,5.342,44.6,10.775c0,6.086,0,12.172,0,18.258
				c-1.643,0.352-3.055-0.932-4.49-1.496c-10.986-4.316-25.057-7.438-39.51-8.68c-36.045-3.102-66.07,7.77-96.98,13.17
				c-10.748,1.877-41.231,7.035-46.693-3.293c-1.193-2.256-0.787-6.203-1.796-7.782c-2.61-4.081-14.631-4.503-22.449-4.19
				c-26.139,1.045-47.249,5.717-67.646,12.271c0,5.688,0,11.375,0,17.063C253.904,78.013,253.928,78.437,253.58,78.485z" fill="#000000" fill-rule="evenodd"></path>
<path clip-rule="evenodd" d="M533.444,79.983c0,6.186,0,12.371,0,18.557
				c-12.654-5.534-27.949-9.07-44.898-10.476c-45.393-3.763-77.871,14.229-121.523,15.863c-9.082,0.341-18.76-1.225-21.252-6.285
				c-1.117-2.269-0.557-5.3-1.197-6.884c-2.733-6.766-26.658-5.016-35.619-4.191c-37.104,3.412-68.934,13.914-92.789,29.034
				c1.23-4.54-1.601-11.729,0-17.659c1.226-4.54,13.091-9.398,17.36-11.375c19.064-8.828,40.181-14.783,64.354-18.258
				c7.308-1.051,15.643-1.797,25.143-1.797c8.891,0,19.181,0.836,21.252,5.688c0.8,1.875,0.461,5.337,1.497,7.184
				c3.125,5.57,13.391,5.821,22.15,5.688c8.861-0.135,17.756-1.588,24.842-2.993c16.375-3.246,30.631-7.058,45.498-9.878
				C472.008,65.8,509.209,68.032,533.444,79.983z" fill="#000000" fill-rule="evenodd"></path>
<path clip-rule="evenodd" d="M47.049,154.513c10.289,26.728,20.674,53.357,30.83,80.218
				c2.494,0,4.989,0,7.483,0c0,1.197,0,2.395,0,3.592c-12.971,0-25.941,0-38.912,0c0-1.197,0-2.395,0-3.592c3.093,0,6.186,0,9.279,0
				c-1.721-6.859-4.513-12.647-6.286-19.456c-8.381,0-16.762,0-25.143,0c-2.679,5.779-10.344,21.236,4.19,19.456
				c0,1.197,0,2.395,0,3.592c-8.581,0-17.161,0-25.742,0c0-1.197,0-2.395,0-3.592c11.055,1.648,13.628-10.949,16.462-18.259
				c7.81-20.141,15.937-42.107,23.347-61.061c0.257-0.242,0.178-0.82,0.599-0.898C44.455,154.513,45.752,154.513,47.049,154.513z
				 M25.797,211.683c7.283,0,14.567,0,21.85,0c-3.574-10.095-7.002-20.335-11.075-29.932
				C33.068,191.815,29.214,201.53,25.797,211.683z" fill="#000000" fill-rule="evenodd"></path>
<path clip-rule="evenodd" d="M543.022,155.71c8.381,0,16.762,0,25.143,0
				c0,26.439,0,52.881,0,79.32c2.496,0.197,5.783-0.396,7.783,0.299c0,0.798,0,1.597,0,2.395c-9.201,1.181-22.041,0.605-32.027,0.3
				c0-0.799,0-1.597,0-2.395c1.234-1.359,4.961-0.228,7.184-0.599c0.697-24.645,0.1-50.585,0.299-75.729
				c-2.322-0.672-5.867-0.119-8.68-0.299c0-0.799,0-1.597,0-2.395C542.696,156.184,542.672,155.761,543.022,155.71z" fill="#000000" fill-rule="evenodd"></path>
<path clip-rule="evenodd" d="M619.948,155.71c8.08,0,16.162,0,24.244,0
				c0,14.268,0,28.535,0,42.803c4.604-6.016,16.734-14.245,27.836-8.081c11.332,6.29,5.41,27.276,6.885,44.299
				c1.83,0.863,5.66-0.272,7.482,0.599c0,0.798,0,1.597,0,2.395c-8.703,1.18-21.045,0.605-30.529,0.3c0-0.799,0-1.597,0-2.395
				c0.85-1.346,4.152-0.237,5.986-0.599c0.535-4.938,0.299-11.563,0.299-18.259c0-9.123,2.215-20.892-5.986-21.252
				c-3.992-0.176-7.172,2.433-8.98,5.089c-4.965,7.293-2.352,22.658-2.992,34.122c1.602,0.893,5.283-0.294,6.885,0.599
				c0,0.798,0,1.597,0,2.395c-8.705,1.18-21.045,0.605-30.531,0.3c0-0.799,0-1.597,0-2.395c1.041-1.354,4.557-0.232,6.586-0.599
				c0-25.343,0-50.686,0-76.027c-2.496,0-4.99,0-7.484,0C619.836,157.995,619.262,156.223,619.948,155.71z" fill="#000000" fill-rule="evenodd"></path>
<path clip-rule="evenodd" d="M336.192,156.309c12.97,0,25.941,0,38.912,0
				c0,1.197,0,2.395,0,3.592c-3.094,0-6.188,0-9.279,0c-0.699,10.976-0.1,23.247-0.299,34.722c8.979,0,17.959,0,26.938,0
				c0-11.574,0-23.147,0-34.722c-3.191,0-6.385,0-9.578,0c0-1.197,0-2.395,0-3.592c13.471,0,26.939,0,40.408,0
				c0,1.197,0,2.395,0,3.592c-3.293,0-6.584,0-9.877,0c-0.699,24.345-0.1,49.986-0.299,74.83c3.391,0,6.783,0,10.176,0
				c0,1.197,0,2.395,0,3.592c-13.469,0-26.938,0-40.408,0c0-1.197,0-2.395,0-3.592c3.094,0,6.186,0,9.279,0
				c0.699-11.474,0.1-24.245,0.299-36.218c-8.381-0.698-18.059-0.1-26.938-0.299c0,12.172,0,24.345,0,36.517
				c3.191,0,6.385,0,9.578,0c0,1.197,0,2.395,0,3.592c-13.07,0-26.141,0-39.211,0c0-1.197,0-2.395,0-3.592c2.893,0,5.787,0,8.68,0
				c0.698-24.345,0.1-49.986,0.299-74.83c-2.993,0-5.986,0-8.979,0C336.083,158.795,335.505,156.919,336.192,156.309z" fill="#000000" fill-rule="evenodd"></path>
<path clip-rule="evenodd" d="M314.94,161.397c4.844-0.429,9.578,2.858,9.578,8.381
				c0,11.799-17.373,10.462-17.66,0.299C306.723,165.283,309.915,161.842,314.94,161.397z" fill="#000000" fill-rule="evenodd"></path>
<path clip-rule="evenodd" d="M604.682,175.166c0,4.889,0,9.777,0,14.667
				c3.092,0,6.186,0,9.277,0c0,1.097,0,2.194,0,3.292c-2.992,0-5.984,0-8.979,0c-0.529,4.951-0.301,11.718-0.299,19.755
				c0,5.369-1.295,16.759,1.197,18.559c4.037,2.916,8.127-3.12,9.877-5.389c0.625,0.474,1.219,0.977,2.096,1.197
				c-2.381,5.907-7.938,11.485-15.564,12.272c-8.986,0.928-14.127-2.964-14.668-11.674c-0.656-10.565,0.498-23.864,0-34.721
				c-2.494,0-4.988,0-7.482,0c0-1.098,0-2.195,0-3.292c2.395,0,4.789,0,7.184,0c0.697-4.291,0.1-9.877,0.299-14.667
				C593.307,175.166,598.995,175.166,604.682,175.166z" fill="#000000" fill-rule="evenodd"></path>
<path clip-rule="evenodd" d="M144.328,199.71c3.96-8.901,20.929-15.972,29.932-7.482
				c8.57,8.079,2.164,27.814,4.19,42.803c2.594,0,5.188,0,7.782,0c0,1.097,0,2.194,0,3.292c-10.177,0-20.354,0-30.53,0
				c0-1.098,0-2.195,0-3.292c2.095,0,4.19,0,6.286,0c-1.222-9.415,1.598-24.201,0-34.123c-0.953-5.914-7.189-6.854-11.674-3.592
				c-8.098,5.892-5.238,23.815-5.687,37.415c1.501,0.694,4.287,0.103,6.286,0.3c0,1.097,0,2.194,0,3.292c-9.678,0-19.356,0-29.034,0
				c0-1.098,0-2.195,0-3.292c2.095,0,4.19,0,6.286,0c0-4.858,0-11.362,0-17.96c0-9.282,2.237-21.406-5.687-21.85
				c-2.615-0.146-5.108,1.145-6.585,2.395c-7.387,6.247-4.575,23.939-5.088,37.115c1.544,0.651,4.255,0.135,6.286,0.3
				c0,1.097,0,2.194,0,3.292c-9.778,0-19.556,0-29.333,0c0-1.098,0-2.195,0-3.292c2.195,0,4.39,0,6.585,0
				c0.697-13.371,0.101-28.036,0.299-41.905c-2.694,0-5.388,0-8.082,0c0-1.098,0-2.195,0-3.292c7.982,0,15.964,0,23.946,0
				c0.632,2.46,0.147,6.038,0.299,8.979c3.389-4.094,9.994-10.265,18.258-10.477C136.457,188.146,143.094,192.348,144.328,199.71z" fill="#000000" fill-rule="evenodd"></path>
<path clip-rule="evenodd" d="M242.505,212.581c-10.776,0-21.551,0-32.327,0
				c-1.563,13.589-0.756,24.205,13.469,22.748c6.085-0.623,10.695-4.435,13.769-8.381c0.694-0.891,1.127-3.153,2.993-1.796
				c1.945,1.415-1.859,4.8-2.095,5.089c-4.94,6.041-11.985,10.092-23.347,9.278c-14.163-1.015-26.058-10.583-24.844-27.537
				c0.975-13.606,11.686-23.416,27.238-23.646C232.14,188.117,242.506,195.803,242.505,212.581z M215.865,191.928
				c-6.957,1.15-6.168,8.886-5.986,17.36c5.388,0,10.775,0,16.163,0C227.107,198.611,225.852,190.276,215.865,191.928z" fill="#000000" fill-rule="evenodd"></path>
<path clip-rule="evenodd" d="M478.967,212.581c-10.975,0-21.951,0-32.926,0
				c-0.928,14.233-0.154,24.28,14.068,22.748c5.941-0.64,10.053-4.089,13.17-8.082c1.014-1.297,2.145-3.149,3.592-2.095
				c2.426,1.768-5.371,8.661-6.584,9.578c-4.701,3.553-11.006,5.352-18.857,4.789c-15.572-1.115-27.002-12.574-24.844-29.034
				c1.629-12.43,11.693-22.006,27.238-22.149C468.606,188.2,478.702,196.006,478.967,212.581z M462.206,196.717
				c-1.609-7.142-13.695-5.838-15.564-0.599c-1.324,3.707,0.369,8.423-0.299,13.17c5.287,0,10.574,0,15.863,0
				C461.526,203.68,463.167,200.981,462.206,196.717z" fill="#000000" fill-rule="evenodd"></path>
<path clip-rule="evenodd" d="M540.627,230.839c2.035,3.623-4.447,8.079-9.877,8.681
				c-6.955,0.771-10.408-2.739-11.975-7.483c-7.248,9.763-32.102,11.395-32.025-5.088c0.061-13.544,17.893-16.386,31.428-17.66
				c-0.275-7.409,1.248-14.371-3.592-16.762c-3.418-1.688-11.396-1.065-11.973,2.395c-0.496,2.975,2.977,4.028,2.096,8.381
				c-0.563,2.771-3.736,5.125-7.484,5.089c-5.719-0.056-8.973-5.146-7.184-10.775c2.045-6.431,10.693-8.496,17.959-8.979
				c11.404-0.76,24.01,0.937,25.145,11.374c0.496,4.574,0,10.85,0,17.061c0,3.315-1.051,13.762,1.795,14.966
				C537.44,233.096,538.915,229.971,540.627,230.839z M516.682,212.88c-4.756,0.595-9.676,1.822-12.273,5.089
				c-5.896,7.42,2.857,19.18,10.775,12.272c3.066-2.675,3.021-7.374,2.994-12.572c-0.008-1.376,0.746-3.852-0.898-4.789
				C517.083,212.899,516.877,212.855,516.682,212.88z" fill="#000000" fill-rule="evenodd"></path>
<path clip-rule="evenodd" d="M282.015,194.622c-4.343-0.385-6.788,3.867-8.381,7.184
				c-3.819,7.948-2.995,20.729-2.993,32.925c2.518,0.675,6.269,0.117,9.279,0.3c0,1.097,0,2.194,0,3.292
				c-10.775,0-21.551,0-32.326,0c0-1.098,0-2.195,0-3.292c1.995,0,3.991,0,5.986,0c0.698-13.37,0.1-28.037,0.299-41.905
				c-2.195,0-4.39,0-6.585,0c0-1.098,0-2.195,0-3.292c7.683,0,15.365,0,23.047,0c0.091,3.4-0.245,7.229,0.299,10.177
				c3.941-4.823,7.239-13.446,18.558-11.374c9.668,1.77,10.719,18.404-0.299,19.156
				C281.911,208.269,277.726,200.787,282.015,194.622z" fill="#000000" fill-rule="evenodd"></path>
<path clip-rule="evenodd" d="M324.518,189.833c0,15.065,0,30.131,0,45.197
				c2.495,0,4.989,0,7.483,0c0,1.097,0,2.194,0,3.292c-10.776,0-21.551,0-32.327,0c0-1.098,0-2.195,0-3.292c2.594,0,5.188,0,7.782,0
				c0.697-13.371,0.101-28.036,0.299-41.905c-2.793,0-5.587,0-8.381,0c0.189-1.008-0.386-2.78,0.299-3.292
				C307.956,189.833,316.237,189.833,324.518,189.833z" fill="#000000" fill-rule="evenodd"></path>
<path clip-rule="evenodd" d="M696.274,238.322c-1.508-0.888-2.705-2.085-3.592-3.592
				c-1.73-10.717,11.596-9.208,11.373-1.796C703.967,235.903,701.397,239.187,696.274,238.322z M693.28,232.036
				c-0.877,8.507,11.668,6.504,9.879-0.897c-0.617-2.548-3.609-3.868-6.586-2.993C693.975,228.909,693.487,230.039,693.28,232.036z" fill="#000000" fill-rule="evenodd"></path>
<path clip-rule="evenodd" d="M695.973,229.642c1.738,0.059,3.875-0.282,4.789,0.6
				c-0.092,1.005,0.4,2.594-0.896,2.395c0.26,0.85,1.643,2.13,0.598,3.292c-1.049-0.847-0.686-3.105-2.992-2.693
				c-0.871,0.227,0.271,2.466-0.6,2.693C694.926,235.479,696.465,231.546,695.973,229.642z M697.17,232.636
				c1.529,0.132,2.676-0.118,2.695-1.497c-0.453-0.744-1.334-1.062-2.695-0.897C697.17,231.039,697.17,231.837,697.17,232.636z" fill="#000000" fill-rule="evenodd"></path>
<path clip-rule="evenodd" d="M3.049,255.384c212.15,0,428.286-0.001,642.34,0
				c10.244,0,25.533-0.967,37.715,0c3.479,0.275,3.609-0.22,3.291,2.693c1.037,4.41-5.268,2.694-8.08,2.694
				c-224.412,0-452.305,0.498-675.565-0.599c0-1.297,0-2.595,0-3.892C2.724,255.856,2.7,255.434,3.049,255.384z" fill="#000000" fill-rule="evenodd"></path>
</g>
</g>
<g>
<path d="M17.592,273.227h3.62l8.591,23.671H26.29l-2.471-7.09h-9.287l-2.567,7.09H8.678L17.592,273.227z
			 M22.909,287.196l-3.645-10.457l-3.787,10.457H22.909z" fill="#000000"></path>
<path d="M62.804,273.227h9.461c3.212,0,5.703,1.155,7.474,3.464c1.579,2.084,2.369,4.754,2.369,8.009
			c0,2.514-0.466,4.786-1.399,6.815c-1.643,3.588-4.468,5.383-8.475,5.383h-9.429V273.227z M71.636,294.157
			c1.061,0,1.933-0.112,2.615-0.338c1.219-0.419,2.216-1.225,2.994-2.417c0.62-0.956,1.066-2.181,1.339-3.674
			c0.158-0.892,0.236-1.719,0.236-2.481c0-2.933-0.57-5.21-1.709-6.832s-2.975-2.434-5.506-2.434h-5.562v18.176H71.636z" fill="#000000"></path>
<path d="M116.374,273.227h4.594l6.806,20.013l6.758-20.013h4.562v23.671h-3.062v-13.971
			c0-0.483,0.011-1.283,0.032-2.4s0.032-2.315,0.032-3.594l-6.758,19.965h-3.178l-6.822-19.965v0.725c0,0.58,0.016,1.465,0.048,2.65
			c0.032,1.188,0.048,2.061,0.048,2.619v13.971h-3.062V273.227z" fill="#000000"></path>
<path d="M174.633,273.227h3.239v23.671h-3.239V273.227z" fill="#000000"></path>
<path d="M213.04,273.227h3.777l11.804,19.125v-19.125h3.062v23.671h-3.603l-11.979-19.103v19.103h-3.062V273.227z" fill="#000000"></path>
<path d="M267.561,273.227h3.239v23.671h-3.239V273.227z" fill="#000000"></path>
<path d="M308.063,289.259c0.072,1.344,0.377,2.434,0.916,3.271c1.024,1.568,2.83,2.353,5.417,2.353
			c1.159,0,2.214-0.172,3.167-0.516c1.842-0.666,2.763-1.858,2.763-3.577c0-1.289-0.39-2.207-1.171-2.756
			c-0.791-0.537-2.029-1.004-3.715-1.401l-3.106-0.726c-2.029-0.473-3.465-0.993-4.308-1.563c-1.457-0.988-2.186-2.465-2.186-4.432
			c0-2.127,0.716-3.872,2.148-5.236s3.46-2.047,6.084-2.047c2.415,0,4.466,0.6,6.155,1.797c1.688,1.198,2.532,3.113,2.532,5.744
			h-3.013c-0.155-1.268-0.484-2.239-0.989-2.916c-0.938-1.235-2.528-1.854-4.773-1.854c-1.813,0-3.116,0.398-3.909,1.193
			s-1.189,1.719-1.189,2.771c0,1.16,0.468,2.008,1.405,2.545c0.614,0.344,2.003,0.773,4.168,1.289l3.216,0.758
			c1.551,0.365,2.748,0.865,3.591,1.498c1.458,1.107,2.186,2.713,2.186,4.818c0,2.621-0.93,4.496-2.79,5.623
			c-1.859,1.129-4.02,1.692-6.482,1.692c-2.871,0-5.118-0.752-6.741-2.256c-1.625-1.493-2.421-3.519-2.389-6.075H308.063z" fill="#000000"></path>
<path d="M375.153,273.227v2.819h-7.977v20.852h-3.238v-20.852h-7.977v-2.819H375.153z" fill="#000000"></path>
<path d="M408.452,273.227h10.76c1.771,0,3.232,0.263,4.383,0.79c2.182,1.01,3.275,2.873,3.275,5.591
			c0,1.418-0.293,2.578-0.879,3.48s-1.404,1.628-2.457,2.175c0.924,0.377,1.619,0.871,2.086,1.482
			c0.467,0.613,0.729,1.606,0.781,2.981l0.113,3.175c0.033,0.902,0.107,1.573,0.227,2.014c0.193,0.752,0.535,1.235,1.031,1.45v0.532
			h-3.932c-0.109-0.205-0.193-0.468-0.258-0.79s-0.119-0.945-0.162-1.869l-0.193-3.948c-0.072-1.547-0.631-2.583-1.676-3.109
			c-0.594-0.29-1.529-0.436-2.801-0.436h-7.092v10.152h-3.207V273.227z M418.866,284.071c1.463,0,2.619-0.301,3.471-0.902
			s1.277-1.688,1.277-3.256c0-1.686-0.596-2.836-1.787-3.447c-0.637-0.322-1.488-0.484-2.553-0.484h-7.615v8.09H418.866z" fill="#000000"></path>
<path d="M468.768,273.227h3.619l8.592,23.671h-3.514l-2.471-7.09h-9.287l-2.566,7.09h-3.287L468.768,273.227z
			 M474.084,287.196l-3.645-10.457l-3.787,10.457H474.084z" fill="#000000"></path>
<path d="M528.61,273.227v2.819h-7.977v20.852h-3.238v-20.852h-7.977v-2.819H528.61z" fill="#000000"></path>
<path d="M580.44,276.61c1.568,2.095,2.354,4.775,2.354,8.041c0,3.533-0.898,6.472-2.691,8.813
			c-2.105,2.75-5.107,4.125-9.008,4.125c-3.641,0-6.504-1.203-8.588-3.609c-1.859-2.32-2.787-5.253-2.787-8.798
			c0-3.201,0.795-5.94,2.385-8.218c2.041-2.922,5.059-4.383,9.055-4.383C575.338,272.582,578.432,273.925,580.44,276.61z
			 M577.612,291.698c1.264-2.027,1.895-4.357,1.895-6.991c0-2.784-0.729-5.026-2.184-6.725s-3.445-2.548-5.971-2.548
			c-2.449,0-4.447,0.841-5.994,2.523s-2.32,4.164-2.32,7.442c0,2.624,0.664,4.835,1.99,6.636s3.479,2.701,6.453,2.701
			C574.307,294.737,576.35,293.725,577.612,291.698z" fill="#000000"></path>
<path d="M616.963,273.227h10.76c1.771,0,3.232,0.263,4.383,0.79c2.182,1.01,3.275,2.873,3.275,5.591
			c0,1.418-0.293,2.578-0.879,3.48s-1.404,1.628-2.457,2.175c0.924,0.377,1.619,0.871,2.086,1.482
			c0.467,0.613,0.729,1.606,0.781,2.981l0.113,3.175c0.033,0.902,0.107,1.573,0.227,2.014c0.193,0.752,0.535,1.235,1.031,1.45v0.532
			h-3.932c-0.109-0.205-0.193-0.468-0.258-0.79s-0.119-0.945-0.162-1.869l-0.193-3.948c-0.072-1.547-0.631-2.583-1.676-3.109
			c-0.594-0.29-1.529-0.436-2.801-0.436h-7.092v10.152h-3.207V273.227z M627.377,284.071c1.463,0,2.619-0.301,3.471-0.902
			s1.277-1.688,1.277-3.256c0-1.686-0.596-2.836-1.787-3.447c-0.637-0.322-1.488-0.484-2.553-0.484h-7.615v8.09H627.377z" fill="#000000"></path>
<path d="M672.465,289.259c0.072,1.344,0.379,2.434,0.916,3.271c1.025,1.568,2.83,2.353,5.418,2.353
			c1.158,0,2.213-0.172,3.166-0.516c1.842-0.666,2.764-1.858,2.764-3.577c0-1.289-0.391-2.207-1.172-2.756
			c-0.791-0.537-2.029-1.004-3.715-1.401l-3.105-0.726c-2.029-0.473-3.467-0.993-4.309-1.563c-1.457-0.988-2.186-2.465-2.186-4.432
			c0-2.127,0.715-3.872,2.148-5.236c1.432-1.364,3.459-2.047,6.084-2.047c2.414,0,4.465,0.6,6.154,1.797
			c1.688,1.198,2.531,3.113,2.531,5.744h-3.012c-0.156-1.268-0.484-2.239-0.99-2.916c-0.938-1.235-2.527-1.854-4.773-1.854
			c-1.813,0-3.115,0.398-3.908,1.193s-1.189,1.719-1.189,2.771c0,1.16,0.469,2.008,1.404,2.545c0.615,0.344,2.004,0.773,4.17,1.289
			l3.215,0.758c1.551,0.365,2.748,0.865,3.592,1.498c1.457,1.107,2.186,2.713,2.186,4.818c0,2.621-0.93,4.496-2.789,5.623
			c-1.859,1.129-4.021,1.692-6.482,1.692c-2.871,0-5.117-0.752-6.742-2.256c-1.623-1.493-2.42-3.519-2.387-6.075H672.465z" fill="#000000"></path>
</g>
</g>
</svg>