<?xml version="1.0" encoding="utf-8"?>
<!-- Generator: Adobe Illustrator 20.0.0, SVG Export Plug-In . SVG Version: 6.00 Build 0)  -->
<svg version="1.1" id="Layer_1" xmlns="http://www.w3.org/2000/svg" xmlns:xlink="http://www.w3.org/1999/xlink" x="0px" y="0px"
	 viewBox="0 0 1000 223.6" style="enable-background:new 0 0 1000 223.6;" xml:space="preserve">
<style type="text/css">
	.st0{fill:#0067A5;}
</style>
<title>ABS_300_201803</title>
<desc>Created with Sketch.</desc>
<path id="Fill-4" class="st0" d="M685.3,137.9h-48.6c0-3.3,0-13.7,0-13.7c0-9,2.6-16.4,7.5-21.3c4.3-4.3,10.3-6.7,16.7-6.7
	c15.6,0.1,24.3,10,24.3,28C685.3,124.2,685.3,134.6,685.3,137.9z M703.1,101.5c-10.4-9.2-24.9-14-41.9-14
	c-15.2,0-30.3,6.9-41.5,19.1c-12,12.9-18.6,30.7-18.7,49.9c0,18.9,6.8,36.2,19.3,48.7c11.9,12,27.8,18.5,44.8,18.5
	c32.7-0.1,51.1-24.3,54.3-46.7l0.2-1.2h-10.1l-0.1,0.9c-2.3,18.2-17.8,37.6-42,37.5c-19.3,0-30.4-13.2-30.5-36.2c0,0,0-25.1,0-30.5
	h84.7l0-1.1C720.9,126.8,714.7,111.7,703.1,101.5z"/>
<path id="Fill-6" class="st0" d="M437.7,194.2h-9.5L428,195c-1.1,6-4.9,16.1-17.1,16c-9.5,0-14.4-6.7-14.4-19.8c0,0,0-81.3,0-91.3
	h31.3l0-1l0-6.9v-1h-31.1V51.5l-1.1,0.1c-7.3,0.8-22.2,1.9-30,1.9h-1V91h-20.7v9h20.8v79.5c0,29.3,12.6,44.1,37.3,44.1
	c28.4,0,34.3-21.6,35.5-28.2L437.7,194.2"/>
<path id="Fill-7" class="st0" d="M83.4,56.2l30,85.7H55.4L83.4,56.2z M325,211.1v-80.8c0-12.5-4-23.2-11.7-30.9
	c-7.7-7.7-18.8-11.9-31.2-11.9c-17,0-30.6,6.8-40.6,20.1l-0.3-15.5l0-1h-50.9v8.8h20v111.2h-35.7L101.3,0.7L101.1,0h-9L20.2,211.1H0
	v8.8h59.9v-8.8H32.3L52.2,151h64.1l20.2,60.1h-27.9v8.8h152.9v-8.8h-20v-61.7c0.1-36.8,19.7-50.2,32.9-50.2
	c12.8,0,19.3,8.3,19.3,24.6c0,0,0,77.5,0,87.3H275v8.8h70.3v-8.8H325z"/>
<path id="Fill-8" class="st0" d="M576.3,211.1V129c0-19.2-11.7-41.5-44.4-41.5c-25.4,0-38.6,12.3-44.2,18.7V0.6h-51v9.2h19.1v201.3
	h-20.6v8.8h72.2v-8.8h-19.7v-62.5c0-21.6,7.4-33.5,13.6-39.7c6-6,13.7-9.3,21.6-9.3c17.5,0,21.2,14.4,21.3,26.5c0,0,0,75.4,0,85
	h-19.7v8.8h72.2v-8.8H576.3"/>
<path id="Fill-9" class="st0" d="M958.3,211.1h-19.6v-87.1c0-22.6-15.5-36.6-40.3-36.6c-23.5,0-36.3,11.7-42.2,19.5
	c-6.5-12.8-19.2-19.6-36.7-19.5c-16.8,0-31.8,6.2-41.8,17l-0.3-12.4l0-1h-51.9v8.8h21.2v111.2h-20.9v8.8h70.6v-8.8h-18v-61.4
	c0.6-17.9,1.4-29.4,7.8-38.2c5.5-7.3,14.3-11.9,22.9-11.9c10.6,0,14.4,8,14.8,8.9c2.7,5.1,2.7,13.9,2.7,22.4v80.2h-18.8v8.8H877
	v-8.8h-18.1v-61.4c0.6-17.9,1.4-29.4,7.8-38.2c5.5-7.3,14.3-11.9,22.9-11.9c10.6,0,14.4,8,14.8,8.9c2.7,5.1,2.7,13.9,2.7,22.4v80.2
	h-18.7v8.8h70.9v-8.8H958.3"/>
<path id="Fill-10" class="st0" d="M983.1,201.9c2.6,0,6.3,0.4,6.3-3.1c0-2.6-2.2-3-4.5-3h-5.2v6.1H983.1z M979.8,212.5h-2.4v-18.9
	h8.1c4.9,0,6.6,1.8,6.6,5.2c0,3.6-2.6,5-5.8,5.3l5.6,8.4h-2.7l-5.3-8.4h-4V212.5z M997.4,203.1c0-8-5.8-13.8-13.8-13.8
	c-8.1,0-13.9,5.8-13.9,13.8c0,8.1,5.8,13.9,13.9,13.9C991.6,217,997.4,211.2,997.4,203.1z M967,203.1c0-9,7.4-16.5,16.6-16.5
	c9.1,0,16.5,7.4,16.5,16.5c0,9.1-7.4,16.6-16.5,16.6C974.4,219.7,967,212.3,967,203.1z"/>
</svg>
