<?xml version="1.0" encoding="UTF-8" standalone="no"?>
<!-- Generator: Adobe Illustrator 19.2.1, SVG Export Plug-In . SVG Version: 6.00 Build 0)  -->

<svg
   xmlns:dc="http://purl.org/dc/elements/1.1/"
   xmlns:cc="http://creativecommons.org/ns#"
   xmlns:rdf="http://www.w3.org/1999/02/22-rdf-syntax-ns#"
   xmlns:svg="http://www.w3.org/2000/svg"
   xmlns="http://www.w3.org/2000/svg"
   xmlns:sodipodi="http://sodipodi.sourceforge.net/DTD/sodipodi-0.dtd"
   xmlns:inkscape="http://www.inkscape.org/namespaces/inkscape"
   version="1.1"
   id="layer"
   x="0px"
   y="0px"
   viewBox="0 0 620 153"
   xml:space="preserve"
   sodipodi:docname="brita-vector-logo.svg"
   width="620"
   height="153"
   inkscape:version="0.92.4 (5da689c313, 2019-01-14)"><metadata
   id="metadata3857"><rdf:RDF><cc:Work
       rdf:about=""><dc:format>image/svg+xml</dc:format><dc:type
         rdf:resource="http://purl.org/dc/dcmitype/StillImage" /><dc:title></dc:title></cc:Work></rdf:RDF></metadata><defs
   id="defs3855" /><sodipodi:namedview
   pagecolor="#ffffff"
   bordercolor="#666666"
   borderopacity="1"
   objecttolerance="10"
   gridtolerance="10"
   guidetolerance="10"
   inkscape:pageopacity="0"
   inkscape:pageshadow="2"
   inkscape:window-width="1920"
   inkscape:window-height="1017"
   id="namedview3853"
   showgrid="false"
   fit-margin-top="10"
   fit-margin-left="10"
   fit-margin-bottom="10"
   fit-margin-right="10"
   inkscape:zoom="1.3006135"
   inkscape:cx="314.7"
   inkscape:cy="72.3"
   inkscape:window-x="-8"
   inkscape:window-y="-8"
   inkscape:window-maximized="1"
   inkscape:current-layer="layer" />
<style
   type="text/css"
   id="style3786">
	.st0{fill-rule:evenodd;clip-rule:evenodd;fill:#00529B;}
	.st1{fill:#009EE3;}
	.st2{fill:#00B0EB;}
	.st3{fill:#D4EDFC;}
	.st4{fill:#5BC5F2;}
	.st5{fill:#A1DAF8;}
</style>
<g
   id="g3850"
   transform="translate(-11.3,-245.3)">
	<path
   class="st0"
   d="m 512.1,282.4 -0.4,3.2 c -0.3,0.6 0,1.3 0.5,1.6 l 4.2,0.9 c 0.6,0.3 1.3,0.1 1.6,-0.5 0.1,-0.1 0.1,-0.3 0.1,-0.4 l 7.2,-26.9 c 0.1,-1.3 -0.5,-2.6 -1.7,-3.2 -0.8,-0.4 -1.7,-0.5 -2.5,-0.2 l -3.4,2.1 c -5,2.6 -9,3 -11.9,3.5 -9.2,0.8 -22.9,0.7 -37.6,1.2 -14.7,-0.5 -28.4,-0.4 -37.6,-1.2 -1.6,-0.2 -3.1,-1.4 -3.8,-2.8 l -2.1,-3.4 c -0.6,-0.6 -1.4,-1 -2.3,-1 -1.4,0 -2.6,0.9 -3,2 l -6.1,27.2 c -0.1,0.1 -0.1,0.3 -0.1,0.4 0,0.7 0.5,1 1.2,1.2 l 4.1,1.2 c 0.7,0 1.3,-0.7 1.5,-1.4 l 5.5,-9 c 3.3,-3.9 8.3,-6.5 14.1,-6.5 l 16.5,0.8 c 1.1,0 1.9,0.2 2.1,2.1 v 96.6 c -0.1,3.6 -0.7,7.2 -3.7,10.1 -3,2.9 -6.2,2.2 -10.1,3.3 -0.6,0.4 -1.1,1.3 -1.1,2.2 0,1.3 0.9,2.4 1.9,2.4 0,0 12.6,-1.1 22.7,-1.3 10.1,0.1 23,1.3 23,1.3 1.1,0 2,-1.1 2,-2.4 0,-0.9 -0.4,-1.9 -1.1,-2.2 -3.8,-1.1 -7.1,-0.4 -10.1,-3.3 -3,-2.9 -3.4,-6.5 -3.6,-10.1 v -96.6 c 0.1,-1.9 0.9,-2.1 2.1,-2.1 12.1,-0.2 16.2,-0.4 25,0.8 4,1 7,4.6 7,8.9 0.1,0.5 0,1 -0.1,1.5 z"
   id="path3788"
   inkscape:connector-curvature="0"
   style="clip-rule:evenodd;fill:#00529b;fill-rule:evenodd" />
	<path
   class="st0"
   d="m 583.4,275.4 c 0,-7.3 5.9,-13.2 13.2,-13.2 7.3,0 13.2,5.9 13.2,13.2 0,7.3 -5.9,13.2 -13.2,13.2 -7.3,0.1 -13.2,-5.9 -13.2,-13.2 m 2,0.1 c 0,-6.2 5,-11.2 11.2,-11.2 6.2,0 11.2,5 11.2,11.2 0,6.2 -5,11.2 -11.2,11.2 -6.1,0 -11.2,-5 -11.2,-11.2"
   id="path3790"
   inkscape:connector-curvature="0"
   style="clip-rule:evenodd;fill:#00529b;fill-rule:evenodd" />
	<path
   class="st0"
   d="m 598.9,276.1 c 2.1,-0.3 3.4,-1.9 3.4,-4 0,-1.4 -0.7,-2.7 -1.9,-3.4 -1.1,-0.6 -2.5,-0.7 -3.8,-0.7 h -4.5 v 14.2 h 1.8 v -6 h 3.1 l 4.2,6 h 2.1 z m -4.9,-6.5 h 2.8 c 1.7,0 3.9,0.3 3.9,2.5 0,2.3 -2,2.6 -3.8,2.6 H 594 Z"
   id="path3792"
   inkscape:connector-curvature="0"
   style="clip-rule:evenodd;fill:#00529b;fill-rule:evenodd" />
	<path
   class="st0"
   d="m 195.3,316.9 c -0.8,0 -1.8,-1 -1.8,-1.8 v -35.8 c 0,-5.8 4.7,-10 10.5,-10 9.3,0.6 17.5,6.4 19.4,14.5 1,3.2 2,10.2 0.6,18.4 -1.4,8.3 -9.9,14.6 -20.3,14.6 h -8.4 z m 0.4,6.7 c -1,0 -2.2,1.1 -2.2,2.1 v 42.1 c 0,6.8 5.7,12.3 12.8,12.3 11.6,0.1 21.3,-7.4 23.7,-17 1.1,-3.7 2.6,-10.8 0.8,-20.4 -1.7,-9.7 -12.2,-19.1 -24.7,-19.1 z m 29,-4.5 c 12.3,1.3 37.9,16.6 28,43.5 -8.3,22.6 -35.1,27.6 -60.2,24.2 -8.7,-1.1 -32,1 -32,1 -1.1,0 -1.9,-1.1 -1.9,-2.4 0,-0.9 0.4,-1.9 1.1,-2.2 3.8,-1.1 7.1,-0.4 10,-3.3 3,-2.9 3.4,-6.5 3.6,-10 l -0.1,-89.4 c -0.1,-3.5 -0.6,-7.1 -3.5,-10 -3,-2.9 -6.2,-2.2 -10.1,-3.3 -0.6,-0.4 -1.1,-1.3 -1.1,-2.2 0,-1.3 0.9,-2.4 2,-2.4 0,0 23.3,2.1 32,0.9 25.2,-3.3 48.1,0.5 52.6,25 3,16.2 -8.6,26.3 -20.1,30.6 z"
   id="path3794"
   inkscape:connector-curvature="0"
   style="clip-rule:evenodd;fill:#00529b;fill-rule:evenodd" />
	<path
   class="st0"
   d="m 298.9,320.6 c -0.8,0 -1.8,-1 -1.8,-1.9 v -38.6 c 0,-6.2 4.8,-10.8 10.8,-10.8 9.6,0.6 18.1,7 20.1,15.7 1,3.5 2.2,8.9 0.7,17.7 -1.5,8.9 -10.2,17.1 -21,17.8 h -8.8 z m 47.2,66.4 c -18.6,-22.6 -19.7,-28.3 -37.2,-57 -2.2,-3.7 -6.7,-4.2 -10.2,-4.6 -0.9,0 -1.6,0.7 -1.6,1.6 v 42.8 c 0.1,3.6 0.6,7.2 3.5,10.1 3,2.9 6.2,2.2 10.1,3.3 0.6,0.4 1.1,1.3 1.1,2.2 0,1.3 -0.9,2.4 -2,2.4 0,0 -12.7,-1.1 -22.8,-1.3 -10.1,0.1 -22.7,1.3 -22.7,1.3 -1.1,0 -2,-1.1 -2,-2.4 0,-0.9 0.4,-1.9 1.1,-2.2 3.8,-1.1 7.1,-0.4 10,-3.3 3,-2.9 3.4,-6.5 3.6,-10.1 l -0.1,-89.4 c -0.1,-3.5 -0.6,-7.1 -3.5,-10.1 -3,-2.9 -6.2,-2.1 -10.1,-3.3 -0.6,-0.4 -1.1,-1.3 -1.1,-2.2 0,-1.3 0.9,-2.4 2,-2.4 0,0 23.3,2.1 32,0.9 25.2,-3.3 53,1.8 55.8,27 2.2,19.6 -15.9,28.6 -27.4,31.5 1.3,0.7 6.4,6.4 9.5,11.2 11.8,18.4 19.4,34.6 32.6,45 2.1,1.4 9.6,5.1 13.9,1.8 3.3,-2.5 3.4,-6.5 3.6,-10.1 l -0.1,-89.4 c -0.1,-3.5 -0.6,-7.2 -3.5,-10.1 -3,-2.9 -6.2,-2.1 -10.1,-3.3 -0.6,-0.4 -1.1,-1.3 -1.1,-2.2 0,-1.3 0.9,-2.4 2,-2.4 0,0 12.6,1.1 22.8,1.3 10.1,-0.1 23,-1.3 23,-1.3 1.1,0 2,1.1 2,2.4 0,0.9 -0.4,1.9 -1.1,2.2 -3.8,1.2 -7.1,0.5 -10.1,3.3 -3,2.9 -3.4,6.5 -3.5,10.1 v 89.4 c 0.1,3.6 0.6,7.2 3.5,10.1 3,2.9 6.2,2.2 10.1,3.3 0.6,0.4 1.1,1.3 1.1,2.2 0,1.3 -0.9,2.4 -2,2.4 0,0 -12.9,-1.1 -23,-1.3 -10.1,0.1 -22.7,1.2 -22.7,1.2 -4.2,-0.5 -6.6,-1.2 -10.9,-1.3 -4.8,-0.1 -11.9,1.2 -12.3,1.2 -1,0.3 -1.9,-0.1 -2.2,-0.5"
   id="path3796"
   inkscape:connector-curvature="0"
   style="clip-rule:evenodd;fill:#00529b;fill-rule:evenodd" />
	<path
   class="st0"
   d="m 551.5,290.9 15.2,37.9 c 0.1,0.2 0,0.3 0,0.5 0,0.8 -0.6,1.4 -1.4,1.4 h -26.8 c -0.8,0 -1.4,-0.6 -1.4,-1.4 0,-0.2 0,-0.4 0.1,-0.6 z M 500,382.3 c 4.6,-0.6 8.9,-5.3 13.1,-15 l 39.6,-104.9 h 9.5 l 42.1,104.9 c 2.2,4.9 3.6,7.7 5.8,12.6 3,2.9 6.2,2.1 10.1,3.3 0.6,0.4 1.1,1.3 1.1,2.2 0,1.3 -0.9,2.4 -2,2.4 0,0 -12.9,-1.1 -23,-1.3 -10.1,0.1 -22.7,1.3 -22.7,1.3 -1.1,0 -2,-1.1 -2,-2.4 0,-0.9 0.4,-1.9 1.1,-2.2 2.3,-0.7 4.5,-0.7 6.4,-1.2 3.1,-1 5.4,-3.9 5.4,-7.4 0,-0.9 -0.1,-1.8 -0.4,-2.6 l -13,-32.4 c -0.2,-0.6 -0.7,-0.9 -1.4,-0.9 h -35.1 c -0.6,0 -1.3,0.2 -1.5,0.8 l -0.1,0.1 -11.4,30.4 c 0,0 -0.6,2.1 -0.6,2.9 -0.1,1.5 0.1,3.7 0.9,4.9 0.4,0.7 1,1.4 1.7,2.1 3,2.9 6.2,2.1 10,3.3 0.6,0.4 1.1,1.3 1.1,2.2 0,1.3 -0.9,2.4 -2,2.4 0,0 -9.2,-0.8 -18.2,-1.1 -8.8,0.3 -17.9,1.1 -17.9,1.1 -1.1,0 -2,-1.1 -2,-2.4 0,-0.9 0.4,-1.9 1.1,-2.2 1.6,-0.5 3,-0.6 4.3,-0.9 0.1,0.1 -7.7,1 0,0"
   id="path3798"
   inkscape:connector-curvature="0"
   style="clip-rule:evenodd;fill:#00529b;fill-rule:evenodd" />
	<path
   class="st1"
   d="m 46.5,274.7 c 0,7 -5.6,12.6 -12.6,12.6 -7,0 -12.6,-5.6 -12.6,-12.6 0,-7 5.6,-12.6 12.6,-12.6 7,0 12.6,5.6 12.6,12.6"
   id="path3800"
   inkscape:connector-curvature="0"
   style="fill:#009ee3" />
	<path
   class="st2"
   d="m 46.5,300 c 0,7 -5.6,12.6 -12.6,12.6 -7,0 -12.6,-5.6 -12.6,-12.6 0,-7 5.6,-12.6 12.6,-12.6 7,0 12.6,5.6 12.6,12.6"
   id="path3802"
   inkscape:connector-curvature="0"
   style="fill:#00b0eb" />
	<path
   class="st3"
   d="m 46.5,325.2 c 0,7 -5.6,12.6 -12.6,12.6 -7,0 -12.6,-5.6 -12.6,-12.6 0,-7 5.6,-12.6 12.6,-12.6 7,0 12.6,5.6 12.6,12.6"
   id="path3804"
   inkscape:connector-curvature="0"
   style="fill:#d4edfc" />
	<path
   class="st3"
   d="m 46.5,350.4 c 0,7 -5.6,12.6 -12.6,12.6 -7,0 -12.6,-5.6 -12.6,-12.6 0,-7 5.6,-12.6 12.6,-12.6 7,0 12.6,5.7 12.6,12.6"
   id="path3806"
   inkscape:connector-curvature="0"
   style="fill:#d4edfc" />
	<path
   class="st3"
   d="m 46.5,375.7 c 0,7 -5.6,12.6 -12.6,12.6 -7,0 -12.6,-5.6 -12.6,-12.6 0,-7 5.6,-12.6 12.6,-12.6 7,0 12.6,5.6 12.6,12.6"
   id="path3808"
   inkscape:connector-curvature="0"
   style="fill:#d4edfc" />
	<path
   class="st1"
   d="m 71.7,274.7 c 0,7 -5.6,12.6 -12.6,12.6 -7,0 -12.6,-5.6 -12.6,-12.6 0,-7 5.6,-12.6 12.6,-12.6 7,0 12.6,5.6 12.6,12.6"
   id="path3810"
   inkscape:connector-curvature="0"
   style="fill:#009ee3" />
	<path
   class="st2"
   d="m 71.7,300 c 0,7 -5.6,12.6 -12.6,12.6 -7,0 -12.6,-5.6 -12.6,-12.6 0,-7 5.6,-12.6 12.6,-12.6 7,0 12.6,5.6 12.6,12.6"
   id="path3812"
   inkscape:connector-curvature="0"
   style="fill:#00b0eb" />
	<path
   class="st4"
   d="m 71.7,325.2 c 0,7 -5.6,12.6 -12.6,12.6 -7,0 -12.6,-5.6 -12.6,-12.6 0,-7 5.6,-12.6 12.6,-12.6 7,0 12.6,5.6 12.6,12.6"
   id="path3814"
   inkscape:connector-curvature="0"
   style="fill:#5bc5f2" />
	<path
   class="st3"
   d="m 71.7,350.4 c 0,7 -5.6,12.6 -12.6,12.6 -7,0 -12.6,-5.6 -12.6,-12.6 0,-7 5.6,-12.6 12.6,-12.6 7,0 12.6,5.7 12.6,12.6"
   id="path3816"
   inkscape:connector-curvature="0"
   style="fill:#d4edfc" />
	<path
   class="st3"
   d="m 71.7,375.7 c 0,7 -5.6,12.6 -12.6,12.6 -7,0 -12.6,-5.6 -12.6,-12.6 0,-7 5.6,-12.6 12.6,-12.6 7,0 12.6,5.6 12.6,12.6"
   id="path3818"
   inkscape:connector-curvature="0"
   style="fill:#d4edfc" />
	<path
   class="st1"
   d="m 96.9,274.7 c 0,7 -5.6,12.6 -12.6,12.6 -7,0 -12.6,-5.6 -12.6,-12.6 0,-7 5.6,-12.6 12.6,-12.6 7,0 12.6,5.6 12.6,12.6"
   id="path3820"
   inkscape:connector-curvature="0"
   style="fill:#009ee3" />
	<path
   class="st2"
   d="m 96.9,300 c 0,7 -5.6,12.6 -12.6,12.6 -7,0 -12.6,-5.6 -12.6,-12.6 0,-7 5.6,-12.6 12.6,-12.6 7,0 12.6,5.6 12.6,12.6"
   id="path3822"
   inkscape:connector-curvature="0"
   style="fill:#00b0eb" />
	<path
   class="st4"
   d="m 96.9,325.2 c 0,7 -5.6,12.6 -12.6,12.6 -7,0 -12.6,-5.6 -12.6,-12.6 0,-7 5.6,-12.6 12.6,-12.6 7,0 12.6,5.6 12.6,12.6"
   id="path3824"
   inkscape:connector-curvature="0"
   style="fill:#5bc5f2" />
	<path
   class="st5"
   d="m 96.9,350.4 c 0,7 -5.6,12.6 -12.6,12.6 -7,0 -12.6,-5.6 -12.6,-12.6 0,-7 5.6,-12.6 12.6,-12.6 7,0 12.6,5.7 12.6,12.6"
   id="path3826"
   inkscape:connector-curvature="0"
   style="fill:#a1daf8" />
	<path
   class="st3"
   d="m 96.9,375.7 c 0,7 -5.6,12.6 -12.6,12.6 -7,0 -12.6,-5.6 -12.6,-12.6 0,-7 5.6,-12.6 12.6,-12.6 7,0 12.6,5.6 12.6,12.6"
   id="path3828"
   inkscape:connector-curvature="0"
   style="fill:#d4edfc" />
	<path
   class="st1"
   d="m 122.2,274.7 c 0,7 -5.6,12.6 -12.6,12.6 -7,0 -12.6,-5.6 -12.6,-12.6 0,-7 5.6,-12.6 12.6,-12.6 7,0 12.6,5.6 12.6,12.6"
   id="path3830"
   inkscape:connector-curvature="0"
   style="fill:#009ee3" />
	<path
   class="st2"
   d="m 122.2,300 c 0,7 -5.6,12.6 -12.6,12.6 -7,0 -12.6,-5.7 -12.6,-12.6 0,-7 5.6,-12.6 12.6,-12.6 7,0 12.6,5.6 12.6,12.6"
   id="path3832"
   inkscape:connector-curvature="0"
   style="fill:#00b0eb" />
	<path
   class="st4"
   d="m 122.2,325.2 c 0,7 -5.6,12.6 -12.6,12.6 -7,0 -12.6,-5.6 -12.6,-12.6 0,-7 5.6,-12.6 12.6,-12.6 7,0 12.6,5.6 12.6,12.6"
   id="path3834"
   inkscape:connector-curvature="0"
   style="fill:#5bc5f2" />
	<path
   class="st3"
   d="m 122.2,350.4 c 0,7 -5.6,12.6 -12.6,12.6 -7,0 -12.6,-5.6 -12.6,-12.6 0,-7 5.6,-12.6 12.6,-12.6 7,0 12.6,5.7 12.6,12.6"
   id="path3836"
   inkscape:connector-curvature="0"
   style="fill:#d4edfc" />
	<path
   class="st3"
   d="m 122.2,375.7 c 0,7 -5.6,12.6 -12.6,12.6 -7,0 -12.6,-5.7 -12.6,-12.6 0,-7 5.6,-12.6 12.6,-12.6 7,0 12.6,5.6 12.6,12.6"
   id="path3838"
   inkscape:connector-curvature="0"
   style="fill:#d4edfc" />
	<path
   class="st1"
   d="m 147.4,274.7 c 0,7 -5.6,12.6 -12.6,12.6 -7,0 -12.6,-5.6 -12.6,-12.6 0,-7 5.6,-12.6 12.6,-12.6 7,0 12.6,5.6 12.6,12.6"
   id="path3840"
   inkscape:connector-curvature="0"
   style="fill:#009ee3" />
	<path
   class="st2"
   d="m 147.4,300 c 0,7 -5.6,12.6 -12.6,12.6 -7,0 -12.6,-5.6 -12.6,-12.6 0,-7 5.6,-12.6 12.6,-12.6 7,0 12.6,5.6 12.6,12.6"
   id="path3842"
   inkscape:connector-curvature="0"
   style="fill:#00b0eb" />
	<path
   class="st3"
   d="m 147.4,325.2 c 0,7 -5.6,12.6 -12.6,12.6 -7,0 -12.6,-5.6 -12.6,-12.6 0,-7 5.6,-12.6 12.6,-12.6 7,0 12.6,5.6 12.6,12.6"
   id="path3844"
   inkscape:connector-curvature="0"
   style="fill:#d4edfc" />
	<path
   class="st3"
   d="m 147.4,350.4 c 0,7 -5.6,12.6 -12.6,12.6 -7,0 -12.6,-5.6 -12.6,-12.6 0,-7 5.6,-12.6 12.6,-12.6 7,0 12.6,5.7 12.6,12.6"
   id="path3846"
   inkscape:connector-curvature="0"
   style="fill:#d4edfc" />
	<path
   class="st3"
   d="m 147.4,375.7 c 0,7 -5.6,12.6 -12.6,12.6 -7,0 -12.6,-5.6 -12.6,-12.6 0,-7 5.6,-12.6 12.6,-12.6 7,0 12.6,5.6 12.6,12.6"
   id="path3848"
   inkscape:connector-curvature="0"
   style="fill:#d4edfc" />
</g>
</svg>