<?xml version="1.0" encoding="UTF-8" standalone="no"?>
<!-- Created with Inkscape (http://www.inkscape.org/) -->

<svg
   xmlns:dc="http://purl.org/dc/elements/1.1/"
   xmlns:cc="http://creativecommons.org/ns#"
   xmlns:rdf="http://www.w3.org/1999/02/22-rdf-syntax-ns#"
   xmlns:svg="http://www.w3.org/2000/svg"
   xmlns="http://www.w3.org/2000/svg"
   xmlns:sodipodi="http://sodipodi.sourceforge.net/DTD/sodipodi-0.dtd"
   xmlns:inkscape="http://www.inkscape.org/namespaces/inkscape"
   id="svg2985"
   version="1.1"
   inkscape:version="0.48.3.1 r9886"
   width="160.55051"
   height="58.23946"
   xml:space="preserve"
   sodipodi:docname="2015_DaVita_Community_Care_Report.pdf"><metadata
     id="metadata2991"><rdf:RDF><cc:Work
         rdf:about=""><dc:format>image/svg+xml</dc:format><dc:type
           rdf:resource="http://purl.org/dc/dcmitype/StillImage" /><dc:title></dc:title></cc:Work></rdf:RDF></metadata><defs
     id="defs2989"><clipPath
       clipPathUnits="userSpaceOnUse"
       id="clipPath3005"><path
         d="M 0,612 792,612 792,0 0,0 0,612 z"
         id="path3007"
         inkscape:connector-curvature="0" /></clipPath><clipPath
       clipPathUnits="userSpaceOnUse"
       id="clipPath3021"><path
         d="M 0,0 792,0 792,612 0,612 0,0 z"
         id="path3023"
         inkscape:connector-curvature="0" /></clipPath><clipPath
       clipPathUnits="userSpaceOnUse"
       id="clipPath3033"><path
         d="M 0,0 792,0 792,612 0,612 0,0 z"
         id="path3035"
         inkscape:connector-curvature="0" /></clipPath><linearGradient
       x1="0"
       y1="0"
       x2="1"
       y2="0"
       gradientUnits="userSpaceOnUse"
       gradientTransform="matrix(-1053,0,0,-1053,922.00006,-9)"
       spreadMethod="pad"
       id="linearGradient3045"><stop
         style="stop-opacity:0;stop-color:#ffffff"
         offset="0"
         id="stop3047" /><stop
         style="stop-opacity:0.37611963;stop-color:#ffffff"
         offset="1"
         id="stop3049" /></linearGradient><mask
       maskUnits="userSpaceOnUse"
       x="0"
       y="0"
       width="1"
       height="1"
       id="mask3051"><g
         id="g3053"><g
           id="g3055"><g
             id="g3057"><g
               id="g3059"><path
                 d="m -32768,32767 65535,0 0,-65535 -65535,0 0,65535 z"
                 style="fill:url(#linearGradient3045);stroke:none"
                 id="path3061"
                 inkscape:connector-curvature="0" /></g></g></g></g></mask><clipPath
       clipPathUnits="userSpaceOnUse"
       id="clipPath3067"><path
         d="m -132,623.042 934,0 0,-633.042 -934,0 0,633.042 z"
         id="path3069"
         inkscape:connector-curvature="0" /></clipPath><clipPath
       clipPathUnits="userSpaceOnUse"
       id="clipPath3083"><path
         d="m 61.86,383.841 295.004,0 0,-295.0037 -295.004,0 0,295.0037 z"
         id="path3085"
         inkscape:connector-curvature="0" /></clipPath><clipPath
       clipPathUnits="userSpaceOnUse"
       id="clipPath3107"><path
         d="M 0,0 792,0 792,612 0,612 0,0 z"
         id="path3109"
         inkscape:connector-curvature="0" /></clipPath></defs><sodipodi:namedview
     pagecolor="#ffffff"
     bordercolor="#666666"
     borderopacity="1"
     objecttolerance="10"
     gridtolerance="10"
     guidetolerance="10"
     inkscape:pageopacity="0"
     inkscape:pageshadow="2"
     inkscape:window-width="1600"
     inkscape:window-height="1177"
     id="namedview2987"
     showgrid="false"
     fit-margin-top="0"
     fit-margin-left="0"
     fit-margin-right="0"
     fit-margin-bottom="0"
     inkscape:zoom="5.0614379"
     inkscape:cx="109.48207"
     inkscape:cy="1.7505257"
     inkscape:window-x="-8"
     inkscape:window-y="-8"
     inkscape:window-maximized="1"
     inkscape:current-layer="g2993" /><g
     id="g2993"
     inkscape:groupmode="layer"
     inkscape:label="2015_DaVita_Community_Care_Report"
     transform="matrix(1.25,0,0,-1.25,-505.44598,518.01786)"><g
       id="g3204"><g
         transform="translate(487.15618,401.63852)"
         id="g3111"><path
           inkscape:connector-curvature="0"
           id="path3113"
           style="fill:#fcaf17;fill-opacity:1;fill-rule:nonzero;stroke:none"
           d="m 0,0 c 0,0 -1.717,-2.391 -4.837,-4.781 0,0 2.65,3.739 3.052,6.131 0,0 -2.519,1.036 -3.653,2.203 0,0 2.101,-1.173 4.227,0.248 0,0 0.537,1.487 0.379,3.636 0,0 1.224,-1.641 1.281,-3.4 0,0 2.462,0.896 3.177,4.023 0,0 0.881,-3.204 -2.091,-5.894 0,0 2.448,-0.861 3.227,-4.272 0,0 -1.006,2.433 -4.762,2.106" /></g><g
         transform="translate(418.45478,404.18042)"
         id="g3115"><path
           inkscape:connector-curvature="0"
           id="path3117"
           style="fill:#00467f;fill-opacity:1;fill-rule:nonzero;stroke:none"
           d="m 0,0 3.469,0 c 3.722,0 6.327,-1.612 6.327,-7.196 0,-3.888 -3.05,-20.595 -10.795,-20.595 l -6,0 L 0,0 z m -14.098,-28.452 13.325,0 c 8.298,0 14.141,9.427 14.141,17.99 0,5.169 -2.791,11.121 -9.526,11.121 l -11.129,0 L -7.435,0 l 3.349,0 -7,-27.791 -2.862,0 -0.15,-0.661 z" /></g><g
         transform="translate(436.91908,379.20152)"
         id="g3119"><path
           inkscape:connector-curvature="0"
           id="path3121"
           style="fill:#00467f;fill-opacity:1;fill-rule:nonzero;stroke:none"
           d="m 0,0 c 0,3.185 2.438,13.732 7.733,13.732 2.564,0 3.805,-2.194 3.805,-3.681 C 11.538,9.222 10.71,7.279 9.676,3.889 8.518,0.039 6.491,-3.309 2.979,-3.309 1.115,-3.309 0,-2.191 0,0 m 16.003,13.481 -3.185,0 -0.784,-2.521 -0.083,0 c -0.289,1.241 -1.365,3.431 -4.053,3.431 -5.171,0 -11.125,-5.539 -11.125,-11.331 0,-3.845 2.234,-7.03 6.163,-7.03 2.398,0 4.713,2.025 5.708,3.724 l 0.082,0 C 8.768,-1.53 8.89,-3.97 11.703,-3.97 c 2.645,0 4.466,3.392 5.002,4.137 L 16.291,0.58 c -0.579,-0.788 -2.397,-3.557 -3.845,-3.557 -0.66,0 -0.991,0.496 -0.991,1.158 0,0.661 0.248,1.489 0.455,2.149 l 4.093,13.151 z" /></g><g
         transform="translate(482.08748,392.68312)"
         id="g3123"><path
           inkscape:connector-curvature="0"
           id="path3125"
           style="fill:#00467f;fill-opacity:1;fill-rule:nonzero;stroke:none"
           d="M 0,0 1.117,0 C 2.896,0 4.632,0.165 6.412,0.91 L 2.11,-12.572 c -0.289,-0.867 -0.659,-1.943 -0.659,-2.564 0,-0.496 0.289,-1.074 0.987,-1.074 2.194,0 4.096,2.81 4.593,3.557 l 0.496,-0.332 c -0.537,-0.911 -2.977,-4.218 -6.204,-4.218 -1.323,0 -2.851,0.745 -2.851,2.769 0,0.788 0.289,1.614 0.539,2.485 l 3.512,11.288 -2.645,0 L 0,0 z" /></g><g
         transform="translate(496.64418,392.02092)"
         id="g3127"><path
           inkscape:connector-curvature="0"
           id="path3129"
           style="fill:#00467f;fill-opacity:1;fill-rule:nonzero;stroke:none"
           d="m 0,0 -3.018,0 0.206,0.661 3.019,0 1.779,5.664 c 1.365,0 2.646,0.335 3.722,1.16 L 3.557,0.661 8.394,0.661 8.188,0 3.351,0 -0.704,-12.818 c -0.122,-0.454 -0.289,-1.241 -0.289,-1.86 0,-0.621 0.413,-1.2 1.284,-1.2 1.321,0 4.259,2.026 6.202,4.879 l 0.456,-0.333 c -1.78,-2.231 -4.385,-5.208 -7.529,-5.208 -1.984,0 -3.39,0.784 -3.39,2.937 0,0.824 0.289,1.858 0.663,3.017 L 0,0 z" /></g><g
         transform="translate(508.96888,379.20152)"
         id="g3131"><path
           inkscape:connector-curvature="0"
           id="path3133"
           style="fill:#00467f;fill-opacity:1;fill-rule:nonzero;stroke:none"
           d="m 0,0 c 0,3.185 2.438,13.732 7.729,13.732 2.566,0 3.807,-2.194 3.807,-3.681 C 11.536,9.222 10.71,7.279 9.674,3.889 8.516,0.039 6.491,-3.309 2.977,-3.309 1.117,-3.309 0,-2.191 0,0 m 16.001,13.481 -3.183,0 -0.784,-2.521 -0.085,0 c -0.289,1.241 -1.365,3.431 -4.051,3.431 -5.169,0 -11.125,-5.539 -11.125,-11.331 0,-3.845 2.234,-7.03 6.161,-7.03 2.4,0 4.713,2.025 5.708,3.724 l 0.08,0 c 0.044,-1.284 0.167,-3.724 2.981,-3.724 2.647,0 4.466,3.392 5.002,4.137 L 16.292,0.58 c -0.578,-0.788 -2.4,-3.557 -3.847,-3.557 -0.661,0 -0.992,0.496 -0.992,1.158 0,0.661 0.25,1.489 0.457,2.149 l 4.091,13.151 z" /></g><g
         transform="translate(445.20688,414.31772)"
         id="g3135"><path
           inkscape:connector-curvature="0"
           id="path3137"
           style="fill:#00467f;fill-opacity:1;fill-rule:nonzero;stroke:none"
           d="m 0,0 c 12.831,-1.41 17.039,-19.733 19.382,-37.276 l 16.424,18.234 -16.026,-22.19 0,-0.01 -4.06,-5.253 c 0.257,20.14 -3.585,45.376 -17.494,45.376 -5.132,0 -10.209,-2.652 -15.459,-8.516 C -11.36,-2.326 -6.301,0.693 0,0" /></g><g
         transform="translate(528.24918,377.85112)"
         id="g3139"><path
           inkscape:connector-curvature="0"
           id="path3141"
           style="fill:#00467f;fill-opacity:1;fill-rule:nonzero;stroke:none"
           d="M 0,0 C 0,1.181 0.893,2.068 2.031,2.068 3.161,2.068 4.049,1.181 4.049,0 4.049,-1.199 3.161,-2.08 2.031,-2.08 0.893,-2.08 0,-1.199 0,0 m 2.031,-2.496 c 1.359,0 2.517,1.053 2.517,2.496 0,1.432 -1.158,2.481 -2.517,2.481 -1.367,0 -2.528,-1.049 -2.528,-2.481 0,-1.443 1.161,-2.496 2.528,-2.496 m -0.526,2.297 0.494,0 0.766,-1.244 0.486,0 -0.813,1.265 C 2.855,-0.126 3.18,0.099 3.18,0.61 3.18,1.181 2.842,1.432 2.157,1.432 l -1.087,0 0,-2.875 0.435,0 0,1.244 z m 0,0.37 0,0.888 0.595,0 c 0.301,0 0.624,-0.064 0.624,-0.421 0,-0.441 -0.329,-0.467 -0.702,-0.467 l -0.517,0 z" /></g></g></g></svg>