<?xml version="1.0" encoding="utf-8"?>
<!-- Generator: Adobe Illustrator 19.2.1, SVG Export Plug-In . SVG Version: 6.00 Build 0)  -->
<svg version="1.1" id="layer" xmlns="http://www.w3.org/2000/svg" xmlns:xlink="http://www.w3.org/1999/xlink" x="0px" y="0px"
	 viewBox="30 260 590 120" style="enable-background:new 0 0 652 652;" xml:space="preserve">
<style type="text/css">
	.st0{fill:#4A4A49;}
	.st1{fill:#00C43C;}
</style>
<g id="Layer_2">
	<g id="Layer_1-2">
		<path class="st0" d="M95.5,337.5c0.1,1.5-1.1,2.7-2.5,2.8c-0.1,0-0.2,0-0.3,0H36.7c2,12,12.1,20.7,26.2,20.7
			c6.9,0,13.6-2.2,19.2-6.2c1.5-1.2,2.8-1,3.6,0.7l4.3,7c0.9,1.3,0.6,3.1-0.7,4c-5.4,4.1-14.3,8.4-28.2,8.4
			c-23.5-0.1-40.7-16.8-40.7-39.3c0-22.1,16-39.2,38.7-39.2c21.7,0,36.2,16,36.2,38.5V337.5z M36.9,328.6h42.9v-0.3
			c-1.1-11.2-9.5-18.7-20.1-18.7C47.9,309.6,39.2,317,36.9,328.6z"/>
		<path class="st0" d="M105,335.7c0-22.3,17.9-39.4,41-39.4c12,0,19.3,3.3,24.4,6.6c1.3,0.8,1.8,2.5,1,3.8c-0.1,0.1-0.1,0.2-0.2,0.3
			l-4.3,7.4c-0.8,1.5-2.3,1.6-3.8,0.8c-4.7-2.7-10-4.1-15.4-4c-15.6,0-26.1,10.4-26.1,24.5c0,13.8,10.5,24.1,25.4,24.1
			c5.6,0.2,11.1-1.1,16.1-3.8c1.6-1,2.8-0.7,3.4,0.7l4.4,7.9c0.8,1.2,0.5,2.8-0.7,3.6c-0.1,0.1-0.2,0.1-0.3,0.2
			c-3.9,2.5-11.3,6.4-24.1,6.4C121.8,374.7,105,357.7,105,335.7z"/>
		<path class="st0" d="M177.3,335.7c0-22.5,18-39.2,40.2-39.2s40,16.7,40,39.3s-18,39-40,39S177.3,358,177.3,335.7z M240.9,335.7
			c0-13.8-10.5-24.4-23.5-24.4s-23.6,10.6-23.6,24.4c-0.4,13,9.8,23.9,22.8,24.3s23.9-9.8,24.3-22.8
			C240.9,336.8,240.9,336.2,240.9,335.7z"/>
		<path class="st0" d="M420,300.6v69.9c0.2,1.3-0.7,2.6-2.1,2.8c-0.2,0-0.5,0-0.7,0h-9c-1.4,0.1-2.5-0.9-2.6-2.3c0-0.1,0-0.2,0-0.4
			l-0.5-9.3c-5.7,7.7-14.7,13.5-27.5,13.5c-20.7,0-36.4-16.7-36.4-39.2c0-22.5,16-39.2,36.6-39.2c12.1,0,21.2,4.9,26.9,11.5l0.5-7.4
			c0-1.5,1.2-2.6,2.7-2.6c0,0,0.1,0,0.1,0h9.3c1.3-0.2,2.6,0.8,2.8,2.1C420,300.2,420,300.4,420,300.6z M404.4,335.5
			c-0.2-13.9-9.5-24.3-23.6-24.3c-13,0-23.3,10.3-23.3,24.3c0,13.9,10.3,24.3,23.3,24.3C394.9,359.8,404.4,349.5,404.4,335.5
			L404.4,335.5z"/>
		<path class="st0" d="M511.8,269.8v100.6c0.1,1.4-0.9,2.7-2.4,2.8c-0.1,0-0.3,0-0.4,0h-8.2c-1.4,0.1-2.6-0.9-2.8-2.3
			c0-0.1,0-0.2,0-0.3l-0.5-9.2c-5.9,7.7-15.1,13.3-27.9,13.3c-20.7,0-36.7-16.7-36.7-39.2c0-22.5,15.6-39.2,36.3-39.2
			c12,0,20.9,5.3,26.4,12.1v-38.6c-0.1-1.4,1-2.7,2.4-2.8c0.1,0,0.3,0,0.4,0H509c1.4-0.1,2.7,1,2.8,2.4
			C511.8,269.6,511.8,269.7,511.8,269.8z M496.2,335.5c0-13.9-9.5-24.3-23.6-24.3c-13,0-23.3,10.3-23.3,24.3
			c0,13.9,10.3,24.3,23.3,24.3C486.8,359.8,496.2,349.6,496.2,335.5z"/>
		<path class="st0" d="M529.4,370.5l0.2-69.9c-0.2-1.3,0.7-2.6,2.1-2.8c0.2,0,0.4,0,0.5,0h11c1.4-0.1,2.5,0.9,2.6,2.3
			c0,0.2,0,0.4,0,0.5v69.9c0.2,1.3-0.7,2.6-2.1,2.8c-0.2,0-0.4,0-0.6,0h-11c-1.4,0.1-2.6-0.9-2.7-2.3
			C529.4,370.8,529.4,370.6,529.4,370.5z"/>
		<path class="st0" d="M529.4,281.2l0.2-11.3c-0.2-1.3,0.7-2.6,2.1-2.8c0.2,0,0.4,0,0.5,0h11c1.4-0.1,2.5,0.9,2.6,2.3
			c0,0.2,0,0.4,0,0.5v11.3c0.2,1.3-0.7,2.6-2.1,2.8c-0.2,0-0.4,0-0.6,0h-11c-1.3,0.2-2.6-0.8-2.7-2.1
			C529.4,281.6,529.4,281.4,529.4,281.2z"/>
		<path class="st0" d="M560.1,366.8c-1.6-0.8-1.8-2.1-1-3.8l4.4-7.7c0.6-1.2,2.1-1.7,3.3-1.1c0.2,0.1,0.3,0.2,0.5,0.3
			c6.9,4.5,14.9,6.8,23.1,6.7c8.4,0,13.5-3.1,13.5-8.9c0-5.3-3.9-7.9-16-10.8c-14.7-3.6-26.9-9.3-26.9-22.8s11.8-22.3,29.5-22.3
			c9.4-0.2,18.6,2.1,26.7,6.7c1.5,0.8,1.8,2.1,0.8,3.8l-4.1,7.5c-0.8,1.5-2.1,1.8-3.8,0.8c-6.3-3.5-13.3-5.4-20.5-5.4
			c-7.1,0-12.1,2.5-12.1,8c0,4.9,4.6,6.9,17.4,10c15.9,4,25.4,9.5,25.4,23.6c0,13.8-11.8,23.1-31,23.1
			C579.2,374.9,569,372.1,560.1,366.8z"/>
		<path class="st1" d="M277.2,299.8c-0.5-1.3-1.7-2.1-3.1-2H262c-2,0-2.8,1.3-2,3.3l6.4,13.8c3,6.5,9.4,10.6,16.5,10.6h5.3
			L277.2,299.8z"/>
		<path class="st0" d="M336.4,298h-11.5c-1.4,0-2.7,0.8-3.3,2.1l-21.7,52.4l-2.8-6.7c-2.8-6.5-9.2-10.7-16.2-10.7h-5.5l16.5,36.5
			c0.4,1.3,1.7,2.2,3.1,2h8.5c1.4,0.2,2.7-0.6,3.1-2l31.7-70.4C339.2,299.5,338.3,298,336.4,298z"/>
	</g>
</g>
</svg>
